<svg width="19" height="19" viewBox="0 0 19 19" fill="none" xmlns="http://www.w3.org/2000/svg">
<path d="M6.5356 9.91301H7.90992V15.6291C7.90992 15.742 8.00047 15.8334 8.11217 15.8334H10.4424C10.5541 15.8334 10.6446 15.742 10.6446 15.6291V9.93993H12.2245C12.3272 9.93993 12.4136 9.86203 12.4254 9.75896L12.6654 7.65459C12.6719 7.59669 12.6538 7.53871 12.6154 7.49527C12.577 7.4518 12.5221 7.42691 12.4645 7.42691H10.6446V6.10778C10.6446 5.71014 10.8566 5.50849 11.2746 5.50849C11.3342 5.50849 12.4645 5.50849 12.4645 5.50849C12.5762 5.50849 12.6667 5.41701 12.6667 5.30418V3.37256C12.6667 3.25971 12.5762 3.16826 12.4645 3.16826H10.8247C10.8131 3.16769 10.7874 3.16675 10.7496 3.16675C10.4651 3.16675 9.47605 3.22318 8.69484 3.94926C7.82928 4.75388 7.94956 5.71728 7.97838 5.88432V7.42687H6.5356C6.42389 7.42687 6.33337 7.51832 6.33337 7.63118V9.70869C6.33337 9.8215 6.42389 9.91301 6.5356 9.91301Z" fill="white" fill-opacity="0.89"/>
</svg>
