<svg width="19" height="19" viewBox="0 0 19 19" fill="none" xmlns="http://www.w3.org/2000/svg">
<path fill-rule="evenodd" clip-rule="evenodd" d="M4.70274 3.16675C5.54961 3.16675 6.23733 3.83434 6.23733 4.65682C6.23733 5.47954 5.54961 6.14714 4.70274 6.14714C3.85244 6.14714 3.16663 5.47954 3.16663 4.65682C3.16663 3.83434 3.85244 3.16675 4.70274 3.16675ZM3.55047 15.8334H5.85349V7.09093H3.55047V15.8334Z" fill="white" fill-opacity="0.89"/>
<path fill-rule="evenodd" clip-rule="evenodd" d="M7.38892 7.10893H9.98497V8.30156H10.0221C10.3832 7.61569 11.2674 6.89233 12.585 6.89233C15.3267 6.89233 15.8334 8.69889 15.8334 11.0486V15.8336H13.126V11.5908C13.126 10.579 13.1081 9.27744 11.7182 9.27744C10.3088 9.27744 10.0939 10.3801 10.0939 11.5183V15.8336H7.38892V7.10893Z" fill="white" fill-opacity="0.89"/>
</svg>
