<svg width="19" height="19" viewBox="0 0 19 19" fill="none" xmlns="http://www.w3.org/2000/svg">
<path fill-rule="evenodd" clip-rule="evenodd" d="M7.10547 15.8335C12.7819 15.8335 15.8859 10.9608 15.8859 6.73555C15.8859 6.597 15.8832 6.45913 15.8771 6.32216C16.4796 5.8708 17.0034 5.30755 17.4167 4.66646C16.8637 4.92099 16.2686 5.09247 15.6444 5.16984C16.2815 4.774 16.7707 4.14771 17.0014 3.40097C16.405 3.76724 15.7447 4.03364 15.0418 4.17713C14.4788 3.55561 13.6767 3.16687 12.7893 3.16687C11.0849 3.16687 9.70275 4.59891 9.70275 6.36432C9.70275 6.61524 9.72982 6.85932 9.78286 7.09339C7.2181 6.95976 4.94371 5.68728 3.4219 3.75244C3.15655 4.22496 3.00394 4.774 3.00394 5.35973C3.00394 6.46911 3.54876 7.44839 4.37719 8.02137C3.87107 8.00522 3.39544 7.86104 2.97959 7.62131C2.97888 7.63463 2.97888 7.6481 2.97888 7.66215C2.97888 9.21093 4.04271 10.5038 5.45469 10.797C5.19549 10.8701 4.92273 10.9095 4.64115 10.9095C4.44234 10.9095 4.24904 10.8891 4.06103 10.8518C4.45385 12.1223 5.59306 13.0467 6.94406 13.0728C5.88753 13.9304 4.55707 14.4415 3.11121 14.4415C2.86209 14.4415 2.61655 14.4267 2.375 14.3973C3.74082 15.3042 5.36237 15.8335 7.10547 15.8335Z" fill="white" fill-opacity="0.89"/>
</svg>
