<svg width="19" height="19" viewBox="0 0 19 19" fill="none" xmlns="http://www.w3.org/2000/svg">
<path fill-rule="evenodd" clip-rule="evenodd" d="M15.9072 4.32161C16.6337 4.5172 17.2065 5.08999 17.4021 5.81646C17.7653 7.14367 17.7513 9.90981 17.7513 9.90981C17.7513 9.90981 17.7513 12.662 17.4021 13.9893C17.2065 14.7157 16.6337 15.2885 15.9072 15.4841C14.5799 15.8334 9.27119 15.8334 9.27119 15.8334C9.27119 15.8334 3.97631 15.8334 2.63513 15.4702C1.90866 15.2745 1.33587 14.7018 1.14028 13.9753C0.791016 12.662 0.791016 9.89587 0.791016 9.89587C0.791016 9.89587 0.791016 7.14367 1.14028 5.81646C1.33587 5.08999 1.92263 4.50323 2.63513 4.30764C3.96234 3.95837 9.27119 3.95837 9.27119 3.95837C9.27119 3.95837 14.5799 3.95837 15.9072 4.32161ZM7.58051 7.3533L11.9952 9.89595L7.58051 12.4386V7.3533Z" fill="white"/>
</svg>
